{
  "accessors": [
    {
      "bufferView": 2,
      "componentType": 5126,
      "count": 2381,
      "max": [
        5.828395366668701,
        8.988299369812012,
        2.0231921672821045
      ],
      "min": [
        -5.8284010887146,
        0.0008927049348130822,
        -1.7297999858856201
      ],
      "type": "VEC3"
    },
    {
      "bufferView": 2,
      "byteOffset": 28572,
      "componentType": 5126,
      "count": 2381,
      "max": [
        1.0,
        1.0,
        1.0
      ],
      "min": [
        -1.0,
        -1.0,
        -1.0
      ],
      "type": "VEC3"
    },
    {
      "bufferView": 1,
      "componentType": 5126,
      "count": 2381,
      "max": [
        1.9967000484466553,
        1.2640000581741333
      ],
      "min": [
        -1.7346999645233154,
        -2.009700059890747
      ],
      "type": "VEC2"
    },
    {
      "bufferView": 0,
      "componentType": 5125,
      "count": 7818,
      "type": "SCALAR"
    },
    {
      "bufferView": 2,
      "byteOffset": 57144,
      "componentType": 5126,
      "count": 2381,
      "max": [
        5.828395366668701,
        8.988299369812012,
        2.0231921672821045
      ],
      "min": [
        -5.8284010887146,
        0.0008927049348130822,
        -1.7297999858856201
      ],
      "type": "VEC3"
    },
    {
      "bufferView": 2,
      "byteOffset": 85716,
      "componentType": 5126,
      "count": 2381,
      "max": [
        1.0,
        1.0,
        1.0
      ],
      "min": [
        -1.0,
        -1.0,
        -1.0
      ],
      "type": "VEC3"
    },
    {
      "bufferView": 1,
      "byteOffset": 19048,
      "componentType": 5126,
      "count": 2381,
      "max": [
        1.9967000484466553,
        1.2640000581741333
      ],
      "min": [
        -1.7346999645233154,
        -2.009700059890747
      ],
      "type": "VEC2"
    },
    {
      "bufferView": 0,
      "byteOffset": 31272,
      "componentType": 5125,
      "count": 7818,
      "type": "SCALAR"
    }
  ],
  "asset": {
    "extras": {
      "author": "AnthonySpongeBob SMF from Cheryl hill (https://sketchfab.com/cherylhill28)",
      "license": "CC-BY-4.0 (http://creativecommons.org/licenses/by/4.0/)",
      "source": "https://sketchfab.com/3d-models/spongebob-mermaid-man-from-sbm-game-e00966aa9f5e4d1090d4039cb8cbf2ed",
      "title": "SpongeBob (Mermaid Man) from SBM Game"
    },
    "generator": "Sketchfab-15.61.0",
    "version": "2.0"
  },
  "bufferViews": [
    {
      "buffer": 0,
      "byteLength": 62544,
      "name": "floatBufferViews",
      "target": 34963
    },
    {
      "buffer": 0,
      "byteLength": 38096,
      "byteOffset": 62544,
      "byteStride": 8,
      "name": "floatBufferViews",
      "target": 34962
    },
    {
      "buffer": 0,
      "byteLength": 114288,
      "byteOffset": 100640,
      "byteStride": 12,
      "name": "floatBufferViews",
      "target": 34962
    }
  ],
  "buffers": [
    {
      "byteLength": 214928,
      "uri": "scene.bin"
    }
  ],
  "images": [
    {
      "uri": "textures/sb_PlsB_png_baseColor.png"
    }
  ],
  "materials": [
    {
      "doubleSided": true,
      "name": "sb_PlsB_png",
      "pbrMetallicRoughness": {
        "baseColorTexture": {
          "index": 0
        },
        "metallicFactor": 0.0
      }
    }
  ],
  "meshes": [
    {
      "name": "Object_0",
      "primitives": [
        {
          "attributes": {
            "NORMAL": 1,
            "POSITION": 0,
            "TEXCOORD_0": 2
          },
          "indices": 3,
          "material": 0,
          "mode": 4
        }
      ]
    },
    {
      "name": "Object_1",
      "primitives": [
        {
          "attributes": {
            "NORMAL": 5,
            "POSITION": 4,
            "TEXCOORD_0": 6
          },
          "indices": 7,
          "material": 0,
          "mode": 4
        }
      ]
    }
  ],
  "nodes": [
    {
      "children": [
        1
      ],
      "matrix": [
        1.0,
        0.0,
        0.0,
        0.0,
        0.0,
        2.220446049250313e-16,
        -1.0,
        0.0,
        0.0,
        1.0,
        2.220446049250313e-16,
        0.0,
        0.0,
        0.0,
        0.0,
        1.0
      ],
      "name": "Sketchfab_model"
    },
    {
      "children": [
        2
      ],
      "matrix": [
        1.0,
        0.0,
        0.0,
        0.0,
        0.0,
        -4.371139006309477e-08,
        0.999999999999999,
        0.0,
        0.0,
        -0.999999999999999,
        -4.371139006309477e-08,
        0.0,
        0.0,
        0.0,
        0.0,
        1.0
      ],
      "name": "Collada visual scene group"
    },
    {
      "children": [
        3,
        4
      ],
      "name": "Object_2"
    },
    {
      "mesh": 0,
      "name": "Object_3"
    },
    {
      "mesh": 1,
      "name": "Object_4"
    }
  ],
  "samplers": [
    {
      "magFilter": 9729,
      "minFilter": 9987,
      "wrapS": 10497,
      "wrapT": 10497
    }
  ],
  "scene": 0,
  "scenes": [
    {
      "name": "Sketchfab_Scene",
      "nodes": [
        0
      ]
    }
  ],
  "textures": [
    {
      "sampler": 0,
      "source": 0
    }
  ]
}
