{
	"asset":{
		"generator":"Khronos glTF Blender I/O v4.1.62",
		"version":"2.0"
	},
	"scene":0,
	"scenes":[
		{
			"name":"Scene",
			"nodes":[
				0
			]
		}
	],
	"nodes":[
		{
			"mesh":0,
			"name":"Tyre"
		}
	],
	"meshes":[
		{
			"name":"Tyre",
			"primitives":[
				{
					"attributes":{
						"POSITION":0,
						"NORMAL":1
					},
					"indices":2
				}
			]
		}
	],
	"accessors":[
		{
			"bufferView":0,
			"componentType":5126,
			"count":91470,
			"max":[
				625.1748657226562,
				357.4114990234375,
				-4.750669002532959
			],
			"min":[
				4.246771335601807,
				2.9121055603027344,
				-625.691162109375
			],
			"type":"VEC3"
		},
		{
			"bufferView":1,
			"componentType":5126,
			"count":91470,
			"type":"VEC3"
		},
		{
			"bufferView":2,
			"componentType":5125,
			"count":548484,
			"type":"SCALAR"
		}
	],
	"bufferViews":[
		{
			"buffer":0,
			"byteLength":1097640,
			"byteOffset":0,
			"target":34962
		},
		{
			"buffer":0,
			"byteLength":1097640,
			"byteOffset":1097640,
			"target":34962
		},
		{
			"buffer":0,
			"byteLength":2193936,
			"byteOffset":2195280,
			"target":34963
		}
	],
	"buffers":[
		{
			"byteLength":4389216,
			"uri":"tire.bin"
		}
	]
}
