{
  "accessors": [
    {
      "bufferView": 2,
      "componentType": 5126,
      "count": 27300,
      "max": [
        0.40887200832366943,
        1.0,
        0.9999989867210388
      ],
      "min": [
        -0.40887200832366943,
        -1.0,
        -0.9999989867210388
      ],
      "type": "VEC3"
    },
    {
      "bufferView": 2,
      "byteOffset": 327600,
      "componentType": 5126,
      "count": 27300,
      "max": [
        1.0,
        1.0,
        0.999995768070221
      ],
      "min": [
        -1.0,
        -1.0,
        -0.9999955296516418
      ],
      "type": "VEC3"
    },
    {
      "bufferView": 3,
      "componentType": 5126,
      "count": 27300,
      "max": [
        1.0,
        1.0,
        0.9999966025352478,
        1.0
      ],
      "min": [
        -1.0,
        -1.0,
        -0.9999964833259583,
        1.0
      ],
      "type": "VEC4"
    },
    {
      "bufferView": 1,
      "componentType": 5126,
      "count": 27300,
      "max": [
        1.0,
        0.9985859990119934
      ],
      "min": [
        0.0,
        0.0
      ],
      "type": "VEC2"
    },
    {
      "bufferView": 0,
      "componentType": 5125,
      "count": 39000,
      "type": "SCALAR"
    }
  ],
  "asset": {
    "extras": {
      "author": "Janrei (https://sketchfab.com/Janrei)",
      "license": "CC-BY-4.0 (http://creativecommons.org/licenses/by/4.0/)",
      "source": "https://sketchfab.com/3d-models/tire-3c29b82703d54b788ef73c356ecf15d7",
      "title": "Tire"
    },
    "generator": "Sketchfab-12.66.0",
    "version": "2.0"
  },
  "bufferViews": [
    {
      "buffer": 0,
      "byteLength": 156000,
      "name": "floatBufferViews",
      "target": 34963
    },
    {
      "buffer": 0,
      "byteLength": 218400,
      "byteOffset": 156000,
      "byteStride": 8,
      "name": "floatBufferViews",
      "target": 34962
    },
    {
      "buffer": 0,
      "byteLength": 655200,
      "byteOffset": 374400,
      "byteStride": 12,
      "name": "floatBufferViews",
      "target": 34962
    },
    {
      "buffer": 0,
      "byteLength": 436800,
      "byteOffset": 1029600,
      "byteStride": 16,
      "name": "floatBufferViews",
      "target": 34962
    }
  ],
  "buffers": [
    {
      "byteLength": 1466400,
      "uri": "scene.bin"
    }
  ],
  "images": [
    {
      "uri": "textures/DefaultMaterial_baseColor.jpeg"
    },
    {
      "uri": "textures/DefaultMaterial_metallicRoughness.png"
    },
    {
      "uri": "textures/DefaultMaterial_normal.png"
    }
  ],
  "materials": [
    {
      "doubleSided": true,
      "name": "DefaultMaterial",
      "normalTexture": {
        "index": 2
      },
      "occlusionTexture": {
        "index": 1
      },
      "pbrMetallicRoughness": {
        "baseColorTexture": {
          "index": 0
        },
        "metallicRoughnessTexture": {
          "index": 1
        }
      }
    }
  ],
  "meshes": [
    {
      "name": "defaultMaterial",
      "primitives": [
        {
          "attributes": {
            "NORMAL": 1,
            "POSITION": 0,
            "TANGENT": 2,
            "TEXCOORD_0": 3
          },
          "indices": 4,
          "material": 0,
          "mode": 4
        }
      ]
    }
  ],
  "nodes": [
    {
      "children": [
        1
      ],
      "matrix": [
        -0.7612812519073486,
        -0.48465996980667103,
        -0.4307616651058198,
        0.0,
        -0.24924026429653168,
        -0.39456823468208335,
        0.8844180107116698,
        0.0,
        -0.5986068844795227,
        0.7806539535522461,
        0.1795806139707567,
        0.0,
        -1.1628000038399477e-06,
        -5.597000267698606e-07,
        1.1462000202300258e-06,
        1.0
      ],
      "name": "Sketchfab_model"
    },
    {
      "children": [
        2
      ],
      "matrix": [
        1.0,
        0.0,
        0.0,
        0.0,
        0.0,
        -4.371139006309477e-08,
        0.999999999999999,
        0.0,
        0.0,
        -0.999999999999999,
        -4.371139006309477e-08,
        0.0,
        0.0,
        0.0,
        0.0,
        1.0
      ],
      "name": "Collada visual scene group"
    },
    {
      "children": [
        3
      ],
      "name": "Plane052"
    },
    {
      "mesh": 0,
      "name": "defaultMaterial"
    }
  ],
  "samplers": [
    {
      "magFilter": 9729,
      "minFilter": 9987,
      "wrapS": 10497,
      "wrapT": 10497
    }
  ],
  "scene": 0,
  "scenes": [
    {
      "name": "Sketchfab_Scene",
      "nodes": [
        0
      ]
    }
  ],
  "textures": [
    {
      "sampler": 0,
      "source": 0
    },
    {
      "sampler": 0,
      "source": 1
    },
    {
      "sampler": 0,
      "source": 2
    }
  ]
}
